<?xml version="1.0" encoding="UTF-8" standalone="no"?>
<!-- Created by diasvg.py -->
<svg width="22.100cm" height="4.250cm" viewBox="2.250 0.950 24.350 5.200"
 xmlns="http://www.w3.org/2000/svg"
 xmlns:xlink="http://www.w3.org/1999/xlink">
<rect x="2.300" y="1.300" width="6.600" height="3.700" fill="#FFFFFF" stroke="none" stroke-width="0"/>
<rect x="2.300" y="1.300" width="6.600" height="3.700" fill="none" stroke="#000000" stroke-width="0.100" />
<text x="5.600" y="3.345"  fill="#000000" text-anchor="middle" font-size="0.80" font-family="sans" font-style="normal" font-weight="400">
Firm</text>
<rect x="16.900" y="1.250" width="7.400" height="3.900" fill="#FFFFFF" stroke="none" stroke-width="0"/>
<rect x="16.900" y="1.250" width="7.400" height="3.900" fill="none" stroke="#000000" stroke-width="0.100" />
<text x="20.600" y="3.395"  fill="#000000" text-anchor="middle" font-size="0.80" font-family="sans" font-style="normal" font-weight="400">
Customer</text>
<text x="17.950" y="4.500"  fill="#000000" text-anchor="start" font-size="0.85" font-family="sans" font-style="normal" font-weight="400">
Customers needs</text>
<line x1="16.900" y1="4.175" x2="9.124" y2="4.078" stroke="#000000" stroke-width="0.100" />
<polyline fill="none" stroke="#000000" stroke-width="0.100"  points="9.515,3.833 9.012,4.076 9.509,4.333 "/>
<text x="9.800" y="4.930"  fill="#000000" text-anchor="start" font-size="0.85" font-family="sans" font-style="normal" font-weight="400">
Customers needs</text>
<text x="2.700" y="4.280"  fill="#000000" text-anchor="start" font-size="0.85" font-family="sans" font-style="normal" font-weight="400">
Redesign Solution</text>
<line x1="8.900" y1="3.150" x2="16.676" y2="3.199" stroke="#000000" stroke-width="0.100" />
<polyline fill="none" stroke="#000000" stroke-width="0.100"  points="16.287,3.446 16.788,3.199 16.290,2.946 "/>
<text x="9.750" y="3.730"  fill="#000000" text-anchor="start" font-size="0.85" font-family="sans" font-style="normal" font-weight="400">
Intergrate Solution</text>
<text x="11.500" y="1.580"  fill="#000000" text-anchor="start" font-size="0.85" font-family="sans" font-style="normal" font-weight="400">
Payment</text>
<line x1="16.900" y1="2.225" x2="9.035" y2="2.078" stroke="#000000" stroke-width="0.100" />
<polyline fill="none" stroke="#000000" stroke-width="0.100"  points="9.428,1.835 8.924,2.076 9.419,2.335 "/>
</svg>